<?xml version="1.0" encoding="UTF-8"?>
<!-- Created with Inkscape (http://www.inkscape.org/) -->
<svg width="158.75mm" height="222.25mm" version="1.1" viewBox="0 0 158.75 222.25" xmlns="http://www.w3.org/2000/svg">
 <g transform="matrix(10 0 0 10 -254 -277.81)">
  <path d="m41.275 50.006h-3.4396v-13.65h3.4396zm-5.2917-4.0534c0 2.3998-1.9076 4.0534-4.4397 4.0534h-6.1436v-13.65h4.7625c2.5109 0 4.445 1.614 4.445 4.0322a3.466 3.466 0 0 1-0.79375 2.2966 3.3576 3.3576 0 0 1 2.1696 3.2676m-7.2919-4.1989h1.3229c0.81756 0 1.3229-0.4736 1.3229-1.1986 0-0.72496-0.49742-1.1986-1.3229-1.1986h-1.3229zm3.8523 4.0534c0-0.79375-0.52917-1.1986-1.3229-1.1986h-2.5294v2.3998h2.5426c0.79375 0 1.3229-0.39423 1.3229-1.2012m8.718-18.026h-3.4396v2.9501h-2.8654v-2.9501h-3.265v2.9501h-2.8654v-2.9501h-3.4396v6.35h15.875z" fill="#e30014" stroke-width=".26458"/>
 </g>
</svg>
